<?xml version="1.0" encoding="UTF-8"?>
<svg width="98px" height="98px" viewBox="0 0 98 98" version="1.1" xmlns="http://www.w3.org/2000/svg" xmlns:xlink="http://www.w3.org/1999/xlink">
    <!-- Generator: Sketch 52.4 (67378) - http://www.bohemiancoding.com/sketch -->
    <title>icon_wu</title>
    <desc>Created with Sketch.</desc>
    <g id="icon_wu" stroke="none" stroke-width="1" fill="none" fill-rule="evenodd">
        <g id="分组-3" transform="translate(1.000000, 20.000000)" fill-rule="nonzero">
            <path d="M16.2571429,9.6 L5.28571429,9.6 L5.28571429,9.58975017 C4.00422857,9.4742693 3,8.39726687 3,7.08571429 C3,5.69711263 4.12568406,4.57142857 5.51428571,4.57142857 C5.93812793,4.57142857 6.3374754,4.67630299 6.6877939,4.86151758 C6.66755452,4.69145183 6.65714286,4.51837037 6.65714286,4.34285714 C6.65714286,1.94436337 8.60150623,0 11,0 C12.848195,0 14.426741,1.15450506 15.0537989,2.78167627 C15.2226171,2.75611151 15.395475,2.74285714 15.5714286,2.74285714 C17.4649763,2.74285714 19,4.27788086 19,6.17142857 C19,7.83014257 17.8221076,9.28232891 16.2571429,9.6 Z" id="路径" fill="#FFFFFF"></path>
            <path d="M15.25,6.17142857 C15.25,4.69209442 14.0507627,3.49285714 12.5714286,3.49285714 C12.4345442,3.49285714 12.2992118,3.50306331 12.1660939,3.52322184 C11.8182179,3.57590198 11.4804849,3.37967622 11.353966,3.05136868 C10.8240016,1.67614816 9.49876137,0.75 8,0.75 C6.01571979,0.75 4.40714286,2.35857693 4.40714286,4.34285714 C4.40714286,4.4875756 4.4156607,4.63106711 4.43253846,4.77288616 C4.50400392,5.37339 3.87186466,5.80720787 3.337245,5.52455262 C3.08603217,5.39173554 2.80605001,5.32142857 2.51428571,5.32142857 C1.53989762,5.32142857 0.75,6.11132619 0.75,7.08571429 C0.75,8.00025058 1.44921267,8.76132987 2.35302764,8.842777 C2.37206335,8.8444924 2.39087974,8.84690902 2.40945227,8.85 L13.1767409,8.85 C14.3619961,8.57399368 15.25,7.44450751 15.25,6.17142857 Z M12.5714286,1.99285714 C14.8791898,1.99285714 16.75,3.8636673 16.75,6.17142857 C16.75,8.17714611 15.3302973,9.94446763 13.406342,10.3350099 L13.2571429,10.35 L2.28571429,10.35 C2.21403937,10.35 2.14471276,10.3399458 2.07906785,10.3211707 C0.47197397,10.1069793 -0.75,8.7309733 -0.75,7.08571429 C-0.75,5.28289907 0.711470495,3.82142857 2.51428571,3.82142857 C2.6545439,3.82142857 2.79363347,3.83032357 2.93089183,3.84784677 C3.17978537,1.26742299 5.35429549,-0.75 8,-0.75 C9.92972791,-0.75 11.6564792,0.33329493 12.5196747,1.99317222 C12.5369141,1.99296223 12.5541656,1.99285714 12.5714286,1.99285714 Z" id="路径" fill="#BBBBBB"></path>
            <path d="M92.1142857,64.6 L84.5714286,64.6 L84.5714286,64.5929532 C83.6904071,64.5135601 83,63.773121 83,62.8714286 C83,61.9167649 83.7739078,61.1428571 84.7285714,61.1428571 C85.0199629,61.1428571 85.2945143,61.2149583 85.5353583,61.3422933 C85.5214437,61.2253731 85.5142857,61.1063796 85.5142857,60.9857143 C85.5142857,59.3367498 86.8510355,58 88.5,58 C89.7706341,58 90.8558844,58.7937222 91.2869867,59.9124024 C91.4030492,59.8948267 91.521889,59.8857143 91.6428571,59.8857143 C92.9446712,59.8857143 94,60.9410431 94,62.2428571 C94,63.383223 93.190199,64.3816011 92.1142857,64.6 Z" id="路径-copy" fill="#FFFFFF" transform="translate(88.500000, 61.300000) scale(-1, 1) translate(-88.500000, -61.300000) "></path>
            <path d="M91.25,62.2428571 C91.25,61.3552567 90.5304576,60.6357143 89.6428571,60.6357143 C89.5605062,60.6357143 89.4791955,60.6418464 89.3992817,60.653948 C89.0514058,60.7066281 88.7136727,60.5104024 88.5871539,60.1820948 C88.2573753,59.3263425 87.4326776,58.75 86.5,58.75 C85.2652491,58.75 84.2642857,59.7509634 84.2642857,60.9857143 C84.2642857,61.0759463 84.2695927,61.1653481 84.2801029,61.2536619 C84.3515683,61.8541658 83.7194291,62.2879836 83.1848094,62.0053284 C83.0456566,61.9317578 82.8907432,61.8928571 82.7285714,61.8928571 C82.1881214,61.8928571 81.75,62.3309785 81.75,62.8714286 C81.75,63.3786173 82.137908,63.8008475 82.6387419,63.8459801 C82.6506106,63.8470496 82.6623941,63.8483918 82.6740863,63.85 L90.0310579,63.85 C90.7267824,63.6749147 91.25,63.0005406 91.25,62.2428571 Z M92.75,62.2428571 C92.75,63.7324323 91.6962716,65.0441696 90.2634849,65.3350099 L90.1142857,65.35 L82.5714286,65.35 C82.5060381,65.35 82.4426021,65.3416316 82.3821332,65.3259073 C81.1696177,65.1562224 80.25,64.1151856 80.25,62.8714286 C80.25,61.5025514 81.3596942,60.3928571 82.7285714,60.3928571 C82.756059,60.3928571 82.7834892,60.3933077 82.8108532,60.3942054 C83.0943506,58.6121088 84.6381065,57.25 86.5,57.25 C87.8665411,57.25 89.0943108,57.9906225 89.7473061,59.1374368 C91.4149794,59.1925209 92.75,60.5617837 92.75,62.2428571 Z" id="路径-copy" fill="#BBBBBB" transform="translate(86.500000, 61.300000) scale(-1, 1) translate(-86.500000, -61.300000) "></path>
        </g>
        <g id="Group-8" transform="translate(19.000000, 20.000000)">
            <g id="Group-6">
                <path d="M9.44262295,48.2622951 L9.44262295,15.7377049 L9.44262295,7 C9.44262295,3.13400675 12.5766297,7.10171439e-16 16.442623,0 L58,0 C61.3137085,-6.08718376e-16 64,2.6862915 64,6 L64,15.7377049 L57.45596,15.7377049 L57.45596,52.7540984 C57.45596,56.0678069 54.7696685,58.7540984 51.45596,58.7540984 L9.44262295,58.7540984 C6.54539148,58.7540984 4.19672131,56.4054282 4.19672131,53.5081967 L4.19672131,48.2622951 L9.44262295,48.2622951 Z" id="合并形状" fill="#FFFFFF"></path>
                <path d="M59.0532787,6.29508197 C59.0532787,3.23261776 56.5706609,0.75 53.5081967,0.75 L12.5901639,0.75 C8.94825343,0.75 5.99590164,3.70235179 5.99590164,7.3442623 L5.99590164,15.7377049 C5.99590164,16.1519185 5.6601152,16.4877049 5.24590164,16.4877049 C4.83168808,16.4877049 4.49590164,16.1519185 4.49590164,15.7377049 L4.49590164,7.3442623 C4.49590164,2.87392467 8.11982631,-0.75 12.5901639,-0.75 L53.5081967,-0.75 C57.3990881,-0.75 60.5532787,2.40419064 60.5532787,6.29508197 L60.5532787,15.7377049 C60.5532787,16.1519185 60.2174923,16.4877049 59.8032787,16.4877049 L53.5081967,16.4877049 C53.0939832,16.4877049 52.7581967,16.1519185 52.7581967,15.7377049 C52.7581967,15.3234914 53.0939832,14.9877049 53.5081967,14.9877049 L59.0532787,14.9877049 L59.0532787,6.29508197 Z" id="路径" fill="#BBBBBB" fill-rule="nonzero"></path>
                <path d="M16.4877049,14.5901639 L16.4877049,16.8852459 C16.4877049,17.5756018 17.047349,18.1352459 17.7377049,18.1352459 L20.0327869,18.1352459 C20.7231428,18.1352459 21.2827869,17.5756018 21.2827869,16.8852459 L21.2827869,14.5901639 C21.2827869,13.899808 20.7231428,13.3401639 20.0327869,13.3401639 L17.7377049,13.3401639 C17.047349,13.3401639 16.4877049,13.899808 16.4877049,14.5901639 Z M20.0327869,11.8401639 C21.5515699,11.8401639 22.7827869,13.0713809 22.7827869,14.5901639 L22.7827869,16.8852459 C22.7827869,18.404029 21.5515699,19.6352459 20.0327869,19.6352459 L17.7377049,19.6352459 C16.2189219,19.6352459 14.9877049,18.404029 14.9877049,16.8852459 L14.9877049,14.5901639 C14.9877049,13.0713809 16.2189219,11.8401639 17.7377049,11.8401639 L20.0327869,11.8401639 Z" id="Rectangle-2" fill="#BBBBBB" fill-rule="nonzero"></path>
                <path d="M27.2786885,16.4877049 C26.864475,16.4877049 26.5286885,16.1519185 26.5286885,15.7377049 C26.5286885,15.3234914 26.864475,14.9877049 27.2786885,14.9877049 L36.7213115,14.9877049 C37.135525,14.9877049 37.4713115,15.3234914 37.4713115,15.7377049 C37.4713115,16.1519185 37.135525,16.4877049 36.7213115,16.4877049 L27.2786885,16.4877049 Z" id="Line-3" fill="#BBBBBB" fill-rule="nonzero"></path>
                <path d="M27.2786885,30.1270492 C26.864475,30.1270492 26.5286885,29.7912627 26.5286885,29.3770492 C26.5286885,28.9628356 26.864475,28.6270492 27.2786885,28.6270492 L41.442623,28.6270492 C41.8568365,28.6270492 42.192623,28.9628356 42.192623,29.3770492 C42.192623,29.7912627 41.8568365,30.1270492 41.442623,30.1270492 L27.2786885,30.1270492 Z" id="Line-3-Copy" fill="#BBBBBB" fill-rule="nonzero"></path>
                <path d="M16.4877049,28.2295082 L16.4877049,30.5245902 C16.4877049,31.2149461 17.047349,31.7745902 17.7377049,31.7745902 L20.0327869,31.7745902 C20.7231428,31.7745902 21.2827869,31.2149461 21.2827869,30.5245902 L21.2827869,28.2295082 C21.2827869,27.5391523 20.7231428,26.9795082 20.0327869,26.9795082 L17.7377049,26.9795082 C17.047349,26.9795082 16.4877049,27.5391523 16.4877049,28.2295082 Z M20.0327869,25.4795082 C21.5515699,25.4795082 22.7827869,26.7107251 22.7827869,28.2295082 L22.7827869,30.5245902 C22.7827869,32.0433732 21.5515699,33.2745902 20.0327869,33.2745902 L17.7377049,33.2745902 C16.2189219,33.2745902 14.9877049,32.0433732 14.9877049,30.5245902 L14.9877049,28.2295082 C14.9877049,26.7107251 16.2189219,25.4795082 17.7377049,25.4795082 L20.0327869,25.4795082 Z" id="Rectangle-2-Copy" fill="#BBBBBB" fill-rule="nonzero"></path>
                <path d="M52.2508168,0.75 L13.5348459,0.75 C9.35982431,0.75 5.99590164,3.53019384 5.99590164,8.59703271 L5.99590164,48.2488276 L4.49590164,48.2488276 L4.49590164,8.59703271 C4.49590164,2.63186774 8.58782552,-0.75 13.5348459,-0.75 L52.2508168,-0.75 C56.0614855,-0.75 58.666221,0.64392654 59.9169906,3.429177 L58.5870228,4.11780932 C58.056878,3.22013856 56.8864372,2.82242498 55.9264535,3.25352242 C54.6851366,3.81095745 53.895245,5.5770273 54.0092387,8.59703271 L54.0092387,52.4590164 C54.0092387,56.3499077 50.855048,59.5040984 46.9641567,59.5040984 L5.24590164,59.5040984 L5.24590164,58.0040984 L46.9641567,58.0040984 C50.0266209,58.0040984 52.5092387,55.5214806 52.5092387,52.4590164 L52.5097775,8.62545581 C52.3754186,5.08267846 53.4269283,2.73167297 55.3119678,1.88516305 C55.6370636,1.73917313 55.9741761,1.64722427 56.3130305,1.6052199 C55.2605933,1.03495845 53.9130547,0.75 52.2508168,0.75 Z" id="路径" fill="#BBBBBB" fill-rule="nonzero"></path>
                <path d="M39.1188525,49.0122951 L0.75,49.0122951 L0.75,53.7540984 C0.75,56.1013085 2.65278981,58.0040984 5,58.0040984 L40.9951773,58.0040984 C39.8371468,56.9469879 39.1188525,55.4262395 39.1188525,53.7540984 L39.1188525,49.0122951 Z M40.6188525,48.2622951 L40.6188525,53.7540984 C40.6188525,55.8468899 42.1419272,57.6195406 44.1851447,57.949507 C45.0257168,58.085254 45.0257168,59.2945744 44.1851447,59.4303214 C43.8817621,59.4793157 43.5734415,59.5040984 43.2622951,59.5040984 L5,59.5040984 C1.82436269,59.5040984 -0.75,56.9297357 -0.75,53.7540984 L-0.75,48.2622951 C-0.75,47.8480815 -0.414213562,47.5122951 0,47.5122951 L39.8688525,47.5122951 C40.283066,47.5122951 40.6188525,47.8480815 40.6188525,48.2622951 Z" id="Combined-Shape" fill="#BBBBBB" fill-rule="nonzero"></path>
            </g>
        </g>
        <circle id="椭圆形" fill="#FFFFFF" fill-rule="nonzero" cx="69" cy="61" r="7"></circle>
        <path d="M67,69.75 C62.1675084,69.75 58.25,65.8324916 58.25,61 C58.25,56.1675084 62.1675084,52.25 67,52.25 C71.8324916,52.25 75.75,56.1675084 75.75,61 C75.75,65.8324916 71.8324916,69.75 67,69.75 Z M67,68.25 C71.0040644,68.25 74.25,65.0040644 74.25,61 C74.25,56.9959356 71.0040644,53.75 67,53.75 C62.9959356,53.75 59.75,56.9959356 59.75,61 C59.75,65.0040644 62.9959356,68.25 67,68.25 Z" id="椭圆形" fill="#BBBBBB" fill-rule="nonzero"></path>
        <path d="M75.1390873,65.3890873 C75.1390873,64.9748737 75.4748737,64.6390873 75.8890873,64.6390873 C76.3033009,64.6390873 76.6390873,64.9748737 76.6390873,65.3890873 L76.6390873,74.3890873 C76.6390873,74.8033009 76.3033009,75.1390873 75.8890873,75.1390873 C75.4748737,75.1390873 75.1390873,74.8033009 75.1390873,74.3890873 L75.1390873,65.3890873 Z" id="直线-7" fill="#BBBBBB" fill-rule="nonzero" transform="translate(75.889087, 69.889087) rotate(-45.000000) translate(-75.889087, -69.889087) "></path>
    </g>
</svg>