<?xml version="1.0" encoding="UTF-8"?>
<svg width="199px" height="50px" viewBox="0 0 199 50" version="1.1" xmlns="http://www.w3.org/2000/svg" xmlns:xlink="http://www.w3.org/1999/xlink">
    <!-- Generator: Sketch 52.4 (67378) - http://www.bohemiancoding.com/sketch -->
    <title>分组 4</title>
    <desc>Created with Sketch.</desc>
    <g id="Page-1" stroke="none" stroke-width="1" fill="none" fill-rule="evenodd">
        <g id="68-佣金收入排行" transform="translate(-87.000000, -80.000000)">
            <g id="分组-5" transform="translate(87.000000, 80.000000)">
                <g id="分组-4">
                    <path d="M84.7734375,38.7265625 L83.0859375,38.7265625 L83.0859375,49.0625 L74.6484375,49.0625 L74.6484375,0.546875 L83.0859375,0.546875 L83.0859375,6.453125 L90.046875,6.453125 L90.046875,6.453125 C90.046875,9.94805193 87.2136769,12.78125 83.71875,12.78125 L83.0859375,12.78125 L83.0859375,19.109375 L89.203125,19.109375 L89.203125,19.109375 C89.203125,22.4878044 86.4643669,25.2265625 83.0859375,25.2265625 L83.0859375,32.8203125 L90.6796875,32.8203125 L90.6796875,32.8203125 C90.6796875,36.0822443 88.0353693,38.7265625 84.7734375,38.7265625 Z M57.5625,12.78125 L57.5625,12.5703125 C57.5625,9.3083807 60.2068182,6.6640625 63.46875,6.6640625 L63.46875,0.546875 L71.6953125,0.546875 L71.6953125,49.0625 L63.46875,49.0625 L63.46875,38.7265625 L56.296875,38.7265625 L56.296875,38.7265625 C56.296875,35.4646307 58.9411932,32.8203125 62.203125,32.8203125 L63.46875,32.8203125 L63.46875,25.2265625 L57.984375,25.2265625 L57.984375,24.8046875 C57.984375,21.7757508 60.4398133,19.3203125 63.46875,19.3203125 L63.46875,12.78125 L57.5625,12.78125 Z M45.5390625,0.7578125 L53.5546875,0.7578125 L53.5546875,6.6640625 L56.0859375,6.6640625 L56.0859375,10.0390625 C56.0859375,11.4370333 54.9526583,12.5703125 53.5546875,12.5703125 L53.5546875,21.640625 C53.9765646,21.4999993 54.539059,21.2890639 55.2421875,21.0078125 C55.945316,20.8671868 56.4374986,20.7265632 56.71875,20.5859375 L56.71875,26.4921875 C55.7343701,26.9140646 54.6796931,27.3359354 53.5546875,27.7578125 L53.5546875,41.6796875 C53.5546875,46.6015871 51.2343982,49.0625 46.59375,49.0625 L42.1640625,49.0625 L42.1640625,44.6328125 C42.1640625,43.9338271 42.7307021,43.3671875 43.4296875,43.3671875 C44.9765702,43.5078132 45.6796882,42.8046952 45.5390625,41.2578125 L45.5390625,30.078125 C45.1171854,30.078125 44.554691,30.2187486 43.8515625,30.5 C42.8671826,30.6406257 42.0937528,30.7812493 41.53125,30.921875 L41.53125,23.75 C41.9531271,23.6093743 42.6562451,23.4687507 43.640625,23.328125 C44.4843792,23.1874993 45.1171854,23.1171875 45.5390625,23.1171875 L45.5390625,12.5703125 L42.375,12.5703125 L42.375,9.828125 C42.375,8.08066153 43.791599,6.6640625 45.5390625,6.6640625 L45.5390625,0.7578125 Z M114.9375,22.0625 L114.9375,22.0625 C114.9375,18.6840706 117.676258,15.9453125 121.054688,15.9453125 L144.257812,15.9453125 L144.257812,15.9453125 C144.257812,19.3237419 141.519054,22.0625 138.140625,22.0625 L137.71875,22.0625 L137.71875,40.8359375 C137.71875,46.0390885 135.187525,48.5703132 130.125,48.4296875 L121.476562,48.4296875 L121.476562,47.375 C121.476562,44.9285511 123.459801,42.9453125 125.90625,42.9453125 C127.453133,42.9453125 128.226562,42.0312591 128.226562,40.203125 L128.226562,22.0625 L114.9375,22.0625 Z M95.953125,30.078125 L95.953125,25.015625 C100.453148,23.4687423 103.406243,19.9531524 104.8125,14.46875 L114.09375,14.46875 C112.828119,17.9843926 111.281259,20.937488 109.453125,23.328125 L109.453125,49.0625 L100.804688,49.0625 L100.804688,29.0234375 C99.3984305,29.4453146 97.7812591,29.7968736 95.953125,30.078125 Z M116.625,9.1953125 L116.625,9.1953125 C116.625,5.81688313 119.363758,3.078125 122.742188,3.078125 L142.78125,3.078125 L142.78125,3.078125 C142.78125,6.45655437 140.042492,9.1953125 136.664062,9.1953125 L116.625,9.1953125 Z M95.953125,16.578125 L95.953125,11.3046875 C100.312522,10.0390562 103.265617,6.52346633 104.8125,0.7578125 L114.09375,0.7578125 C111.281236,10.1797346 105.234421,15.4531194 95.953125,16.578125 Z M165.351562,29.8671875 L165.351562,29.8671875 C165.351562,26.7217533 167.901441,24.171875 171.046875,24.171875 L176.953125,24.171875 L176.953125,24.171875 C176.953125,22.307914 178.464164,20.796875 180.328125,20.796875 L186.65625,20.796875 L186.65625,24.171875 L198.46875,24.171875 L198.46875,24.171875 C198.46875,27.3173092 195.918872,29.8671875 192.773438,29.8671875 L178.640625,29.8671875 L178.640625,32.1875 L196.148438,32.1875 L196.148438,41.890625 C196.289063,46.3906475 194.039086,48.5703132 189.398438,48.4296875 L182.226562,48.4296875 L182.226562,46.7421875 C182.226562,44.7617289 183.832041,43.15625 185.8125,43.15625 C187.218757,43.15625 187.921875,42.3828202 187.921875,40.8359375 L187.921875,37.8828125 L177.796875,37.8828125 C176.953121,42.8047121 172.312542,46.6015491 163.875,49.2734375 L163.875,44 C168.375023,41.609363 170.484376,37.6719024 170.203125,32.1875 L170.203125,29.8671875 L165.351562,29.8671875 Z M149.953125,12.9921875 L149.953125,11.09375 C149.953125,8.99679384 151.653044,7.296875 153.75,7.296875 L153.75,0.3359375 L161.765625,0.3359375 L161.765625,7.296875 L165.140625,7.296875 L165.140625,9.6171875 C165.140625,11.4811485 163.629586,12.9921875 161.765625,12.9921875 L161.765625,14.2578125 C162.328128,17.4922037 163.242181,20.7968581 164.507812,24.171875 L164.507812,32.1875 C164.085935,31.6249972 163.523441,30.7109438 162.820312,29.4453125 C162.398435,28.742184 162.046876,28.2500014 161.765625,27.96875 L161.765625,49.2734375 L153.75,49.2734375 L153.75,31.5546875 C153.046871,33.1015702 151.781259,35.4218595 149.953125,38.515625 C150.093751,38.2343736 149.953127,38.445309 149.53125,39.1484375 L149.53125,29.4453125 C151.50001,24.3827872 152.765622,18.898467 153.328125,12.9921875 L149.953125,12.9921875 Z M193.195312,9.828125 C193.054687,11.0937563 192.703128,12.3593687 192.140625,13.625 L198.046875,13.625 L198.046875,14.6796875 C198.046875,18.9900974 194.552597,22.484375 190.242188,22.484375 L190.242188,19.109375 L173.15625,19.109375 L173.15625,19.109375 C173.15625,20.973336 171.645211,22.484375 169.78125,22.484375 L165.351562,22.484375 L165.351562,19.7421875 C165.351562,16.3637581 168.090321,13.625 171.46875,13.625 C171.046873,12.7812458 170.765626,11.5156334 170.625,9.828125 L178.851562,9.828125 C178.992188,11.5156334 179.273435,12.7812458 179.695312,13.625 L183.914062,13.625 C184.195314,13.0624972 184.476561,12.1484438 184.757812,10.8828125 C184.898438,10.4609354 184.96875,10.1093764 184.96875,9.828125 L193.195312,9.828125 Z M165.984375,8.984375 L165.984375,8.984375 C165.984375,5.83894076 168.534253,3.2890625 171.679688,3.2890625 L176.742188,3.2890625 L176.742188,3.2890625 C176.742188,1.89109173 177.875467,0.7578125 179.273438,0.7578125 L186.65625,0.7578125 L186.65625,3.2890625 L197.625,3.2890625 L197.625,3.2890625 C197.625,6.43449674 195.075122,8.984375 191.929688,8.984375 L165.984375,8.984375 Z" id="排行榜" fill="#FFFFFF"></path>
                    <rect id="矩形" fill="#5045D8" fill-rule="nonzero" x="0" y="1" width="30" height="49" rx="15"></rect>
                    <g id="分组-6" transform="translate(9.000000, 6.500000)" fill="#FFFFFF">
                        <path d="M1.640625,5.40625 L1.640625,2.765625 C1.640625,1.6610555 2.5360555,0.765625 3.640625,0.765625 L10.5,0.765625 L10.5,3.765625 C10.5625003,4.92188078 10.0000059,5.46875031 8.8125,5.40625 L4.921875,5.40625 C4.89062484,5.43750016 4.85937516,5.49999953 4.828125,5.59375 C4.828125,5.65625031 4.78125047,5.74999938 4.6875,5.875 L11.0625,5.875 L11.0625,9.4375 C11.0937502,10.4687552 10.5156309,10.9687502 9.328125,10.9375 L7.828125,10.9375 L7.828125,9.71875 L8.4375,9.71875 C8.84375203,9.75000016 9.03125016,9.56250203 9,9.15625 L9,7.1875 L8.625,7.1875 C8.24999813,9.06250938 6.87501188,10.4062459 4.5,11.21875 L4.5,10 C5.75000625,9.28124641 6.48437391,8.34375578 6.703125,7.1875 L5.953125,7.1875 C5.29687172,9.06250938 3.64063828,10.3749962 0.984375,11.125 L0.984375,9.90625 C2.4843825,9.21874656 3.46874766,8.31250563 3.9375,7.1875 L3.5625,7.1875 C2.81249625,7.75000281 1.87500563,8.12499906 0.75,8.3125 L0.75,7.140625 C1.750005,6.76562313 2.43749813,6.18750391 2.8125,5.40625 L1.640625,5.40625 Z M7.96875,4.234375 C8.37500203,4.26562516 8.56250016,4.09375187 8.53125,3.71875 L8.53125,3.625 L3.609375,3.625 L3.609375,4.234375 L7.96875,4.234375 Z M8.53125,1.984375 L3.609375,1.984375 L3.609375,2.546875 L8.53125,2.546875 L8.53125,1.984375 Z" id="易"></path>
                        <path d="M0.5625,22.15625 L0.5625,22.15625 C0.5625,21.4572646 1.12913961,20.890625 1.828125,20.890625 L5.15625,20.890625 L5.15625,20.796875 C5.93750391,20.6406242 6.5781225,20.4218764 7.078125,20.140625 L1.453125,20.140625 L1.453125,20.140625 C1.453125,19.4416396 2.01976461,18.875 2.71875,18.875 L10.265625,18.875 L10.265625,20.1875 C9.73437234,20.4687514 9.23437734,20.7031241 8.765625,20.890625 L11.484375,20.890625 L11.484375,20.890625 C11.484375,21.5896104 10.9177354,22.15625 10.21875,22.15625 L7.40625,22.15625 L7.40625,22.53125 C7.40625,23.5625052 6.87500531,24.078125 5.8125,24.078125 L3.609375,24.078125 L3.609375,23.9375 C3.609375,23.3679564 4.07108135,22.90625 4.640625,22.90625 C5.01562687,22.9375002 5.18750016,22.750002 5.15625,22.34375 L5.15625,22.15625 L0.5625,22.15625 Z M10.21875,15.59375 L10.21875,16.859375 C10.2500002,17.9843806 9.71875547,18.5312502 8.625,18.5 L1.78125,18.5 L1.78125,16.59375 C1.78125,16.0414653 2.22896525,15.59375 2.78125,15.59375 L10.21875,15.59375 Z M0.5625,15.171875 L0.5625,15.171875 C0.5625,14.4728896 1.12913961,13.90625 1.828125,13.90625 L4.78125,13.90625 L4.78125,13.90625 C4.78125,13.6214782 5.01210318,13.390625 5.296875,13.390625 L7.171875,13.390625 L7.171875,13.90625 L11.4375,13.90625 L11.4375,13.90625 C11.4375,14.6052354 10.8708604,15.171875 10.171875,15.171875 L0.5625,15.171875 Z M3.703125,16.71875 L3.703125,17.328125 L7.875,17.328125 C8.18750156,17.3593752 8.32812516,17.2187516 8.296875,16.90625 L8.296875,16.71875 L3.703125,16.71875 Z" id="享"></path>
                        <path d="M8.765625,31.265625 C9.04687641,32.4218808 9.21874969,33.6249938 9.28125,34.875 L7.921875,34.875 C7.921875,34.8124997 7.90625016,34.7187506 7.875,34.59375 L7.875,34.40625 C7.3749975,34.5312506 6.81250312,34.59375 6.1875,34.59375 L5.390625,34.59375 L5.390625,33.234375 C5.73437672,32.2031198 5.99999906,31.0468814 6.1875,29.765625 C5.90624859,29.8906256 5.60937656,29.9999995 5.296875,30.09375 L5.296875,29.0625 C5.85937781,28.5624975 6.21874922,27.6718814 6.375,26.390625 L8.25,26.390625 C8.21874984,26.4843755 8.18750016,26.6249991 8.15625,26.8125 C8.09374969,27.0625012 8.04687516,27.2343745 8.015625,27.328125 L11.109375,27.328125 L11.109375,35.203125 C11.1718753,36.4843814 10.5781312,37.0937503 9.328125,37.03125 L7.640625,37.03125 L7.640625,36.9375 C7.640625,36.3161797 8.14430466,35.8125 8.765625,35.8125 C9.14062687,35.8125 9.328125,35.5937522 9.328125,35.15625 L9.328125,28.640625 L7.453125,28.640625 C7.17187359,29.1093773 6.79687734,29.4531239 6.328125,29.671875 L7.921875,29.671875 C7.85937469,29.9218762 7.84374984,30.0000005 7.875,29.90625 C7.74999937,30.5312531 6.9456413,32.9531236 6.85189083,33.234375 L7.703074,33.234375 L7.77512539,32.1901362 C7.81104462,31.6695597 8.24381083,31.265625 8.765625,31.265625 Z M0.84375,33.9375 L0.84375,27.765625 C0.84375,27.2133403 1.29146525,26.765625 1.84375,26.765625 L5.203125,26.765625 L5.203125,32.671875 C5.203125,33.3708604 4.63648539,33.9375 3.9375,33.9375 L3.9375,28.03125 L2.0625,28.03125 L2.0625,33.9375 L0.84375,33.9375 Z M3.046875,35.296875 C2.51562234,36.1093791 1.73438016,36.7343728 0.703125,37.171875 L0.703125,36 C1.85938078,35.0312452 2.40625031,33.7656328 2.34375,32.203125 L2.34375,28.640625 L3.703125,28.640625 L3.703125,32.15625 C3.64062469,33.7187578 4.18749422,34.9687453 5.34375,35.90625 L5.34375,37.171875 C4.28124469,36.6406223 3.51562734,36.0156286 3.046875,35.296875 Z" id="购"></path>
                    </g>
                </g>
            </g>
        </g>
    </g>
</svg>